<svg width="40" height="40" viewBox="0 0 40 40" fill="none" xmlns="http://www.w3.org/2000/svg">
<g clip-path="url(#clip0_758_1725)">
<mask id="mask0_758_1725" style="mask-type:luminance" maskUnits="userSpaceOnUse" x="0" y="0" width="40" height="40">
<path d="M40 0H0V40H40V0Z" fill="white"/>
</mask>
<g mask="url(#mask0_758_1725)">
<path d="M35.5556 0H4.44444C1.98985 0 0 1.98985 0 4.44444V35.5556C0 38.0102 1.98985 40 4.44444 40H35.5556C38.0102 40 40 38.0102 40 35.5556V4.44444C40 1.98985 38.0102 0 35.5556 0Z" fill="#EBB1B1"/>
<path d="M35.5556 0H4.44444C1.98985 0 0 1.98985 0 4.44444V35.5556C0 38.0102 1.98985 40 4.44444 40H35.5556C38.0102 40 40 38.0102 40 35.5556V4.44444C40 1.98985 38.0102 0 35.5556 0Z" fill="url(#paint0_linear_758_1725)"/>
<mask id="mask1_758_1725" style="mask-type:luminance" maskUnits="userSpaceOnUse" x="7" y="6" width="25" height="28">
<path d="M32 6.69287H7.92981V33.1623H32V6.69287Z" fill="white"/>
</mask>
<g mask="url(#mask1_758_1725)">
<path d="M19.2995 14.7122C19.6671 14.4999 20.1201 14.4999 20.4878 14.7122L24.0388 16.7624C24.4065 16.9746 24.6329 17.367 24.6329 17.7915V21.8917C24.6329 22.3164 24.4065 22.7086 24.0388 22.9209L20.4878 24.9711C20.1201 25.1833 19.6671 25.1833 19.2995 24.9711L15.7484 22.9209C15.3808 22.7086 15.1543 22.3164 15.1543 21.8917V17.7915C15.1543 17.367 15.3808 16.9746 15.7484 16.7624L19.2995 14.7122Z" fill="white"/>
<path d="M19.6394 11.271L20.8471 10.572C22.0449 9.87863 22.0539 8.15245 20.8634 7.44661C20.2999 7.11251 19.6 7.10873 19.0329 7.43674L10.9468 12.1139C9.60038 12.8927 8.77124 14.3301 8.77124 15.8856V23.7977C8.77124 25.3474 9.59431 26.7805 10.9329 27.5614L13.7187 29.1864C14.2758 29.5115 14.9638 29.5157 15.5249 29.1975C16.7591 28.4976 16.7457 26.7144 15.5009 26.0332L13.5334 24.9564C12.8061 24.5584 12.3539 23.7953 12.3539 22.9663V17.5404C12.3539 16.2676 13.0325 15.0913 14.1343 14.4542L19.6394 11.271Z" fill="white" stroke="white" stroke-width="0.0509273"/>
<path d="M29.0621 12.1235L26.2643 10.5023C25.6971 10.1737 24.9969 10.1762 24.4322 10.5088C23.2346 11.2141 23.2407 12.9481 24.4432 13.645L26.4479 14.8066C27.1816 15.2317 27.6333 16.0156 27.6333 16.8636V22.2265C27.6333 23.5204 26.9321 24.7128 25.8014 25.3418L19.0897 29.0755C17.8415 29.7698 17.8367 31.5634 19.0811 32.2644C19.6426 32.5808 20.3294 32.5779 20.8882 32.2568L29.0483 27.5684C30.4008 26.7913 31.2348 25.3504 31.2348 23.7904V15.8936C31.2348 14.3393 30.4068 12.9028 29.0621 12.1235Z" fill="white" stroke="white" stroke-width="0.0509273"/>
</g>
<path d="M2.56805 49.7872C2.8805 50.0905 3.35959 50.1092 3.7186 49.8262C6.95942 47.347 7.74569 47.3271 10.8389 49.7148C11.1979 49.9875 11.7062 49.9588 12.0092 49.6466C12.3164 49.3301 12.3259 48.8341 12.0511 48.4747C9.65695 45.4015 9.64238 44.7306 11.946 41.35C12.201 40.9745 12.1766 40.5046 11.8685 40.2055C11.5518 39.898 11.077 39.8835 10.7093 40.1581C7.4814 42.6414 6.69516 42.6614 3.60627 40.2778C3.23438 40.001 2.73886 40.0252 2.42745 40.3461C2.12444 40.6582 2.10627 41.1459 2.38978 41.5137C4.77978 44.5998 4.79423 45.2622 2.48197 48.6342C2.23143 49.0226 2.26428 49.4924 2.56805 49.7872Z" fill="url(#paint1_linear_758_1725)"/>
<path d="M2.56805 49.7872C2.8805 50.0905 3.35959 50.1092 3.7186 49.8262C6.95942 47.347 7.74569 47.3271 10.8389 49.7148C11.1979 49.9875 11.7062 49.9588 12.0092 49.6466C12.3164 49.3301 12.3259 48.8341 12.0511 48.4747C9.65695 45.4015 9.64238 44.7306 11.946 41.35C12.201 40.9745 12.1766 40.5046 11.8685 40.2055C11.5518 39.898 11.077 39.8835 10.7093 40.1581C7.4814 42.6414 6.69516 42.6614 3.60627 40.2778C3.23438 40.001 2.73886 40.0252 2.42745 40.3461C2.12444 40.6582 2.10627 41.1459 2.38978 41.5137C4.77978 44.5998 4.79423 45.2622 2.48197 48.6342C2.23143 49.0226 2.26428 49.4924 2.56805 49.7872Z" fill="url(#paint2_linear_758_1725)" fill-opacity="0.2"/>
</g>
</g>
<defs>
<linearGradient id="paint0_linear_758_1725" x1="40" y1="0" x2="0" y2="40" gradientUnits="userSpaceOnUse">
<stop stop-color="#F7AAF9"/>
<stop offset="1" stop-color="#342DFB"/>
</linearGradient>
<linearGradient id="paint1_linear_758_1725" x1="11.8685" y1="40.2055" x2="2.56805" y2="49.7872" gradientUnits="userSpaceOnUse">
<stop stop-color="#F7AAF9"/>
<stop offset="1" stop-color="#342DFB"/>
</linearGradient>
<linearGradient id="paint2_linear_758_1725" x1="11.8685" y1="40.2055" x2="2.56805" y2="49.7872" gradientUnits="userSpaceOnUse">
<stop/>
<stop offset="1" stop-opacity="0"/>
</linearGradient>
<clipPath id="clip0_758_1725">
<rect width="40" height="40" fill="white"/>
</clipPath>
</defs>
</svg>
